<svg width="160" height="48" viewBox="0 0 160 48" fill="none" xmlns="http://www.w3.org/2000/svg">
  <!-- Paw Print Icon -->
  <g transform="translate(0, 4) scale(0.8)">
    <path d="M20 12C22.2091 12 24 10.2091 24 8C24 5.79086 22.2091 4 20 4C17.7909 4 16 5.79086 16 8C16 10.2091 17.7909 12 20 12Z" fill="#3B82F6"/>
    <path d="M32 16C34.2091 16 36 14.2091 36 12C36 9.79086 34.2091 8 32 8C29.7909 8 28 9.79086 28 12C28 14.2091 29.7909 16 32 16Z" fill="#3B82F6"/>
    <path d="M8 16C10.2091 16 12 14.2091 12 12C12 9.79086 10.2091 8 8 8C5.79086 8 4 9.79086 4 12C4 14.2091 5.79086 16 8 16Z" fill="#3B82F6"/>
    <path d="M20 32C26.6274 32 32 26.6274 32 20C32 13.3726 26.6274 8 20 8C13.3726 8 8 13.3726 8 20C8 26.6274 13.3726 32 20 32Z" fill="#3B82F6"/>
  </g>
  
  <!-- Text "Petg" -->
  <text x="48" y="32" font-family="Arial, sans-serif" font-size="28" font-weight="bold" fill="#1F2937" class="dark:text-white">
    Petg
  </text>
</svg> 